<?xml version="1.0" encoding="UTF-8" standalone="no"?>
<!-- Generator: Adobe Illustrator 18.1.1, SVG Export Plug-In . SVG Version: 6.00 Build 0)  -->

<svg
   xmlns:dc="http://purl.org/dc/elements/1.1/"
   xmlns:cc="http://creativecommons.org/ns#"
   xmlns:rdf="http://www.w3.org/1999/02/22-rdf-syntax-ns#"
   xmlns:svg="http://www.w3.org/2000/svg"
   xmlns="http://www.w3.org/2000/svg"
   xmlns:sodipodi="http://sodipodi.sourceforge.net/DTD/sodipodi-0.dtd"
   xmlns:inkscape="http://www.inkscape.org/namespaces/inkscape"
   version="1.1"
   id="Layer_1"
   x="0px"
   y="0px"
   width="1539.4287"
   height="511.88779"
   viewBox="0 0 1539.4288 511.88777"
   enable-background="new 0 0 1440 612"
   xml:space="preserve"
   inkscape:version="0.91 r13725"
   sodipodi:docname="nac-logo.svg"
   inkscape:export-filename="/Users/colm/Desktop/banner.png"
   inkscape:export-xdpi="90.099998"
   inkscape:export-ydpi="90.099998"><metadata
     id="metadata4586"><rdf:RDF><cc:Work
         rdf:about=""><dc:format>image/svg+xml</dc:format><dc:type
           rdf:resource="http://purl.org/dc/dcmitype/StillImage" /><dc:title></dc:title></cc:Work></rdf:RDF></metadata><defs
     id="defs4584" /><sodipodi:namedview
     pagecolor="#ffffff"
     bordercolor="#666666"
     borderopacity="1"
     objecttolerance="10"
     gridtolerance="10"
     guidetolerance="10"
     inkscape:pageopacity="0"
     inkscape:pageshadow="2"
     inkscape:window-width="1271"
     inkscape:window-height="734"
     id="namedview4582"
     showgrid="false"
     inkscape:zoom="0.32210784"
     inkscape:cx="865.03919"
     inkscape:cy="-14.066882"
     inkscape:window-x="-2"
     inkscape:window-y="23"
     inkscape:window-maximized="0"
     inkscape:current-layer="flowRoot4147"
     fit-margin-top="0"
     fit-margin-left="0"
     fit-margin-right="0"
     fit-margin-bottom="0" /><flowRoot
     xml:space="preserve"
     id="flowRoot4526"
     style="font-style:normal;font-weight:normal;font-size:40px;line-height:125%;font-family:sans-serif;letter-spacing:0px;word-spacing:0px;fill:#000000;fill-opacity:1;stroke:none;stroke-width:1px;stroke-linecap:butt;stroke-linejoin:miter;stroke-opacity:1"
     transform="translate(-118.57587,-178.09695)"><flowRegion
       id="flowRegion4528"><rect
         id="rect4530"
         width="720"
         height="353.03226"
         x="831.48389"
         y="283.65225" /></flowRegion><flowPara
       id="flowPara4532" /></flowRoot><g
     id="g4196"
     transform="translate(273.2004,91.43804)"><g
       id="flowRoot4147"
       style="font-style:normal;font-variant:normal;font-weight:normal;font-stretch:normal;font-size:40.00000381px;line-height:125%;font-family:'IM FELL Double Pica';-inkscape-font-specification:'IM FELL Double Pica, Normal';text-align:start;letter-spacing:0px;word-spacing:0px;writing-mode:lr-tb;text-anchor:start;fill:#ffffff;fill-opacity:1;stroke:none;stroke-width:1px;stroke-linecap:butt;stroke-linejoin:miter;stroke-opacity:1"
       transform="matrix(1.5558346,0,0,1.5558346,-918.87206,-694.3363)"><g
         id="g4267"><g
           transform="matrix(2.5163445,0,0,2.5163445,396.05613,356.97781)"
           id="g9223"
           inkscape:export-xdpi="90.099998"
           inkscape:export-ydpi="90.099998"><g
             id="g9218"><g
               style="fill:#4a9dec;fill-opacity:1"
               transform="matrix(1.7483856,1.3718541,-1.314695,1.6543469,-33.109403,-358.80668)"
               id="g4142" /><g
               id="g4261"><g
                 id="g4256"><path
                   inkscape:export-ydpi="90.099998"
                   inkscape:export-xdpi="90.099998"
                   style="fill:#13497d;fill-opacity:1;fill-rule:evenodd;stroke:none;stroke-width:1px;stroke-linecap:butt;stroke-linejoin:miter;stroke-opacity:1"
                   d="m 8.0357454,27.948504 c 0.7802098,1.376148 4.7549086,3.453382 7.4669076,4.495059 2.181046,0.837738 4.544959,1.292924 6.88099,1.334495 1.776022,0.03161 3.523791,-1.182986 5.264222,-0.827804 1.622227,0.33106 3.15851,1.355245 4.212,2.6325 1.94422,2.357184 2.16856,5.713563 3.29062,8.555626 1.37329,3.478408 3.53354,6.720751 4.212,10.398376 0.79616,4.315554 0.0966,8.788896 -0.26325,13.162501 -0.22536,2.739508 -1.11857,5.412783 -1.18463,8.160751 -0.0879,3.657445 0.7119,7.282311 1.05301,10.924875 0.0903,0.965009 0.15799,1.932253 0.26325,2.895751 0.22577,2.066566 0.99672,4.117843 0.78974,6.186376 -0.24666,2.465376 -1.84197,4.62278 -2.38343,7.04058 -0.7481,3.34033 0.15435,7.04595 -1.17044,10.2023 -1.37628,3.27921 -3.52439,6.71728 -6.71287,8.29238 -2.87268,1.41908 -6.46106,-0.33583 -9.60863,0.26324 -2.01794,0.38407 -4.1918,0.81735 -5.79149,2.106 -2.30348,1.8556 -4.5131327,4.55332 -4.7385098,7.50263 -0.2021327,2.64513 1.0738688,5.68089 3.1780318,7.29646 5.572404,4.27849 13.840536,3.73212 20.841065,3.14074 2.41738,-0.20421 4.551557,-1.71965 6.912783,-2.27646 3.840963,-0.90576 7.78428,-1.35644 11.71463,-1.71112 6.25254,-0.56423 13.08587,1.89244 18.82237,-0.65811 1.7295,-0.76898 3.216188,-2.33516 3.94876,-4.08038 0.657589,-1.56659 1.247165,-3.81379 0.13168,-5.09533 -1.573806,-1.80807 -4.889808,0.003 -7.145804,-0.80721 -2.055221,-0.73814 -3.700678,-2.3229 -5.490196,-3.57446 -1.43817,-1.00583 -3.09935,-1.80178 -4.212,-3.15901 -1.41837,-1.73011 -2.2783,-3.90445 -2.89575,-6.05474 -1.0725,-3.73492 -1.00341,-7.70977 -1.31625,-11.58301 -0.36779,-4.553444 0.10803,-9.185434 -0.65813,-13.689002 -0.56807,-3.339219 -2.50969,-6.375126 -2.89575,-9.74025 -0.49596,-4.323238 -0.14426,-8.780679 0.78975,-13.030875 0.41443,-1.886004 0.67808,-4.096697 2.106,-5.396627 1.18099,-1.075134 3.03635,-1.606258 4.60688,-1.31625 1.72583,0.318687 2.9518,1.937563 4.212,3.159001 3.42942,3.323933 6.01921,7.417577 8.95049,11.188126 3.17225,4.080483 6.33941,8.168277 9.34538,12.372751 2.18693,3.058861 4.22679,6.220308 6.31801,9.345376 2.2536,3.36774 3.89847,7.21973 6.71286,10.13513 6.552145,5.96929 8.267855,11.54799 13.820635,17.37451 1.84157,1.89439 4.17362,3.26526 6.44962,4.60687 2.72193,1.60445 5.55347,3.09541 8.55564,4.08037 2.34698,0.77001 5.4887,3.09498 7.27821,1.39237 2.58634,-2.46076 -1.16637,-7.05059 -1.48671,-10.60613 -0.68167,-7.56594 -1.08356,-15.17626 -0.92139,-22.77112 0.0789,-3.697432 0.77955,-7.360947 0.92139,-11.056501 2.24022,-12.1361 -2.64895,-24.423588 -1.31631,-33.827627 0.62635,-4.883586 -0.3588,-9.987754 0.92139,-14.742002 0.5612,-2.084128 1.45164,-4.18741 2.89573,-5.791501 1.25408,-1.393008 3.14867,-2.03462 4.73852,-3.027376 4.15097,-4.618771 7.96778,-3.542529 11.18811,-4.738501 1.31848,-0.546134 1.98462,-2.053035 3.02737,-3.027373 1.72718,-1.613866 4.91061,-2.339163 5.34268,-4.663175 0.19924,-1.071669 -3.76485,-1.367378 -1.52619,-2.892106 0,0 -5.10487,-1.978314 -7.76523,-2.579845 -1.29377,-0.292532 -2.62305,-0.536004 -3.94874,-0.492092 -1.56298,0.05176 -3.05863,0.666784 -4.60688,0.886966 -2.35569,0.33501 -4.7309,0.548322 -7.10775,0.658126 -1.18337,0.05468 -2.36926,0 -3.55389,0 -2.19374,0 -4.38881,-0.07638 -6.58124,0 -1.89006,0.06586 -3.77232,0.512341 -5.65988,0.394874 -2.49911,-0.155525 -4.87488,-1.249943 -7.37099,-1.447874 -2.45089,-0.194343 -4.91752,0.105448 -7.37101,0.263249 -1.89086,0.121611 -4.128095,-0.588769 -5.659875,0.526501 -1.0805,0.786708 -1.52395,2.350086 -1.57951,3.6855 -0.0577,1.38625 0.62809,2.74399 1.31625,3.94875 1.5579,2.727393 3.611792,5.308531 6.186385,7.107751 2.61873,1.830064 5.82709,2.759395 8.95206,3.423814 1.58967,0.337989 3.59993,-0.754108 4.86857,0.261681 1.13849,0.911581 0.96205,2.770611 1.18463,4.212 0.20767,1.344893 0.16097,2.719859 0.13169,4.080376 -0.0503,2.331448 -0.41443,4.646833 -0.52652,6.976127 -0.10124,2.104023 -0.10968,4.211657 -0.13168,6.318 -0.0169,1.623286 -0.10092,3.249888 0,4.870126 0.13185,2.118289 0.63752,4.201078 0.78975,6.318 0.43087,9.939985 3.5854,15.403795 -7.23931,13.030876 -1.84201,-0.458916 -3.37471,-1.838499 -4.73851,-3.159001 -2.16919,-2.100348 -3.58063,-4.865043 -5.26499,-7.371 -1.100033,-1.636604 -1.936225,-3.454713 -3.158995,-5.001751 -1.75078,-2.21502 -3.89457,-4.090981 -5.92314,-6.054749 -2.05267,-1.987102 -4.63758,-3.481026 -6.318,-5.791501 -8.2277,-10.107466 -3.12904,-21.182239 -6.97299,-29.991476 -0.66729,-1.672263 -6.289458,-3.402396 -9.74338,-4.099403 -1.591298,-0.321127 -3.46605,-0.814815 -4.87013,0 -5.80722,1.066253 -4.11822,0.390717 -10.39838,-1.053005 -2.90145,-0.678055 -5.78563,-1.428649 -8.68724,-2.106 -6.73136,-2.764465 -10.35782,0.669283 -15.25703,-0.24905 -1.82445,-0.299664 -3.6909,-0.293556 -5.53973,-0.277449 -3.25402,0.02836 -6.81529,-0.768085 -9.74025,0.658124 -1.5359998,0.748954 -2.7272796,2.255952 -3.4222496,3.817126 -0.0472,2.757336 -0.6629801,8.346593 0.26325,10.135131 z"
                   id="path4233"
                   inkscape:connector-curvature="0"
                   sodipodi:nodetypes="caaaaaaaaaaaaaaaaaaaaaaaaaaaaaaaaaaaaaaccaaaaaccaaccaasaaaaaaaaaaaaaaaaaaaaccaaaaccaccccaaccc" /><path
                   sodipodi:nodetypes="caaaaaaaaaaaaaaaaaaaaaaaaaaaaaaaaaaaaaaccaaaaaccaaccaaaaaaaaaaaaaaaaaaaaaaaccaaaaccaccccaacc"
                   inkscape:connector-curvature="0"
                   id="path9186"
                   d="m 15.934967,30.880912 c 0.780206,1.376149 2.506493,1.982561 3.948747,2.632499 2.813748,1.267991 5.890041,1.971049 8.950502,2.369252 2.218922,0.28871 4.561962,-0.616875 6.712876,0 1.591505,0.456437 3.158511,1.355244 4.212,2.632499 1.944224,2.357185 2.16857,5.713563 3.290626,8.555626 1.373288,3.478408 3.533536,6.720751 4.212,10.398375 0.796153,4.315555 0.09653,8.788897 -0.26325,13.162502 -0.225353,2.739508 -1.118572,5.412783 -1.184626,8.160751 -0.08791,3.657445 0.711885,7.282311 1.053,10.924875 0.09038,0.965009 0.15799,1.932253 0.263251,2.895751 0.225769,2.066565 0.996718,4.117843 0.789749,6.186376 -0.246677,2.465382 -1.841967,4.622772 -2.383449,7.040572 -0.748091,3.34033 0.154284,7.04595 -1.170426,10.2023 -1.376279,3.27922 -3.524392,6.71728 -6.712875,8.29239 -2.87268,1.41908 -6.461053,-0.33584 -9.608627,0.26324 -2.017949,0.38407 -4.19181,0.81734 -5.791499,2.106 -2.303468,1.85559 -4.538918,4.55147 -4.738502,7.50262 -0.149701,2.21357 1.058341,4.63611 2.764126,6.05475 2.225376,1.85078 5.551267,1.75235 8.424001,2.106 6.53194,0.80413 13.179799,0.47686 19.743752,0 3.935939,-0.28594 7.784284,-1.35645 11.714625,-1.71113 6.252553,-0.56423 13.085878,1.89244 18.822377,-0.65811 1.729492,-0.76897 3.219341,-2.33384 3.948751,-4.08038 0.761059,-1.82233 1.13713,-4.22342 0.131619,-5.92313 -1.209,-2.04369 -4.023838,-2.67809 -6.318,-3.29062 -2.03649,-0.54374 -4.33265,0.4448 -6.318001,-0.26324 -1.653023,-0.58953 -3.099349,-1.80179 -4.212,-3.15901 -1.418357,-1.73012 -2.278289,-3.90446 -2.89575,-6.05475 -1.072489,-3.73492 -1.003407,-7.70976 -1.31625,-11.583 -0.367783,-4.55344 0.108029,-9.185436 -0.658126,-13.689004 -0.568071,-3.33922 -2.509699,-6.375126 -2.895749,-9.74025 -0.495966,-4.323239 -0.144176,-8.780679 0.789749,-13.030875 0.414426,-1.886004 0.678085,-4.096698 2.106,-5.396627 1.180989,-1.075134 3.036354,-1.606258 4.606877,-1.31625 1.725823,0.318687 2.951796,1.937563 4.212,3.159 3.429428,3.323934 6.019209,7.417577 8.9505,11.188127 3.17224,4.080483 6.339407,8.168276 9.345376,12.372751 2.186917,3.058861 4.226783,6.220308 6.318002,9.345376 2.253606,3.367732 3.898475,7.219732 6.712877,10.135122 6.55213,5.96929 8.26784,11.548 13.82062,17.37451 1.84157,1.89439 4.17362,3.26527 6.44962,4.60688 2.72193,1.60445 5.45665,3.46436 8.55564,4.08036 1.63752,0.32551 3.80047,0.89621 5.00175,-0.26324 2.15504,-2.08001 0.71854,-5.95626 0.78976,-8.95051 0.18065,-7.59443 -1.08357,-15.17627 -0.92139,-22.77112 0.0789,-3.697434 0.77954,-7.360949 0.92139,-11.056503 2.24021,-12.136101 -2.64896,-24.423588 -1.31632,-33.827627 0.62635,-4.883586 -0.35879,-9.987754 0.92139,-14.742001 0.5612,-2.084129 1.45164,-4.187411 2.89574,-5.791502 1.25407,-1.393008 3.14866,-2.03462 4.73851,-3.027375 4.15097,-4.618771 7.96778,-3.542529 11.18811,-4.738501 1.31849,-0.546135 2.37714,-1.756998 3.02738,-3.027374 0.74932,-1.463955 1.15038,-3.265572 0.78975,-4.870126 -0.33011,-1.468764 -1.50403,-2.647908 -2.56095,-3.71991 -0.62484,-0.633779 -1.34794,-1.222797 -2.17755,-1.54509 -1.23641,-0.480332 -2.62305,-0.536004 -3.94874,-0.492092 -1.56298,0.05176 -3.05862,0.666784 -4.60688,0.886966 -2.35569,0.33501 -4.7309,0.548322 -7.10775,0.658126 -1.18337,0.05468 -2.36926,0 -3.55389,0 -2.19374,0 -4.38881,-0.07638 -6.58124,0 -1.89005,0.06586 -3.77232,0.512341 -5.65988,0.394874 -2.49911,-0.155525 -4.87488,-1.249943 -7.37099,-1.447874 -2.45088,-0.194343 -4.91752,0.105448 -7.37101,0.263249 -1.89086,0.121611 -4.1281,-0.588769 -5.65987,0.526501 -1.08051,0.786708 -1.52396,2.350086 -1.5795,3.6855 -0.0577,1.38625 0.62808,2.74399 1.31625,3.94875 1.55789,2.727393 3.38693,5.683382 6.18638,7.107751 1.80558,0.91869 4.08529,0.05176 6.05474,0.526499 2.71678,0.654882 5.90367,1.075256 7.76588,3.159001 0.97187,1.087484 0.96206,2.77061 1.18463,4.212 0.20767,1.344893 0.16097,2.719859 0.13169,4.080375 -0.0503,2.331448 -0.41443,4.646832 -0.52651,6.976126 -0.10125,2.104024 -0.10969,4.211658 -0.13169,6.318001 -0.0169,1.623286 -0.10092,3.249888 0,4.870126 0.13185,2.118288 0.63752,4.201078 0.78975,6.318 0.43088,9.939985 3.5854,15.403795 -7.2393,13.030876 -1.84202,-0.458916 -3.37472,-1.838499 -4.73852,-3.159001 -2.16919,-2.100349 -3.58063,-4.865043 -5.26499,-7.371 -1.10003,-1.636604 -1.93622,-3.454713 -3.159,-5.001751 -1.75077,-2.21502 -3.894555,-4.090981 -5.923129,-6.054749 -2.052678,-1.987102 -4.637592,-3.481026 -6.318,-5.791501 -8.227706,-10.107466 -8.92367,-21.596141 -12.767626,-30.405378 -0.667279,-1.672263 -2.273696,-3.025256 -3.94875,-3.685501 -1.510287,-0.5953 -3.466052,-0.814815 -4.870126,0 -5.807228,1.066253 -4.118214,0.390717 -10.398376,-1.053005 -2.90145,-0.678055 -5.785635,-1.428649 -8.68725,-2.106 -6.731346,-2.764465 -10.357812,0.669283 -15.257033,-0.24905 -1.824442,-0.299664 -3.690902,-0.293556 -5.539719,-0.277449 -3.25403,0.02836 -6.815283,-0.768085 -9.740251,0.658124 -1.536006,0.748954 -2.727285,2.255952 -3.422259,3.817126 -0.04712,2.757336 -0.66298,8.346593 0.263256,10.135131 z"
                   style="fill:#ffffff;fill-opacity:1;fill-rule:evenodd;stroke:none;stroke-width:1px;stroke-linecap:butt;stroke-linejoin:miter;stroke-opacity:1"
                   inkscape:export-xdpi="90.099998"
                   inkscape:export-ydpi="90.099998" /></g></g></g></g><path
           sodipodi:nodetypes="cccccccccccccccccccccccccccccccccccccccccscccccccccccccccsccccccccc"
           inkscape:connector-curvature="0"
           id="path4160"
           style="font-style:normal;font-variant:normal;font-weight:normal;font-stretch:normal;font-size:450.00003052px;line-height:125%;font-family:'IM FELL Double Pica';-inkscape-font-specification:'IM FELL Double Pica, Normal';text-align:start;writing-mode:lr-tb;text-anchor:start;fill:#13497d;fill-opacity:1"
           d="m 926.42601,572.7345 12.52442,0 c 3.25917,-0.0458 6.98864,0.23214 9.88769,-0.82323 1.46485,-0.68602 2.19727,-2.26387 2.19727,-4.73357 -0.31877,-5.97761 -3.7218,-10.64285 -5.49316,-15.84717 -1.61133,-5.21378 -3.14942,-10.49616 -4.61426,-15.84715 -1.31836,-5.35099 -3.00293,-10.42758 -5.05371,-15.22974 -5.22821,-15.92644 -11.67908,-29.53971 -16.25977,-44.45438 -11.71553,-13.71086 -30.33968,67.96802 -34.49707,83.76358 -7.25675,17.39948 31.45889,12.91594 41.30859,13.17166 z M 771.78795,676.20744 c 3.51563,-0.96043 6.73828,-2.12666 9.66797,-3.49872 18.53625,-8.24897 30.93876,-0.47409 36.85594,-12.8746 1.02539,-1.78366 3.93973,-11.80891 4.08622,-14.55302 2.08877,-16.08042 9.85755,-28.88665 15.38086,-42.60211 2.22702,-6.10404 3.8239,-12.89246 5.93262,-18.31686 5.71924,-18.75163 12.1636,-35.57169 16.91894,-52.89247 1.47683,-7.39047 5.79624,-14.51305 8.12989,-20.99235 5.87195,-12.84362 3.34197,-15.88177 9.66797,-26.34333 9.62108,-24.9704 26.007,-54.3013 33.83789,-78.20679 0.85065,-2.01814 1.54894,-4.15385 2.19727,-6.17422 4.25911,-13.09055 6.34882,-11.92079 21.41074,-12.24505 0.22942,0.24091 0.33879,0.10577 0.65918,0.2058 8.48819,1.39664 19.31929,4.28854 26.15585,7.38342 1.28336,1.05184 11.77477,6.24831 12.77345,7.48695 0.9621,0.93768 -10.73616,-1.56051 -10.46191,-0.24758 0.43662,3.14752 1.34004,6.28334 1.97754,9.26132 0.63643,3.16042 1.52591,5.70534 1.97753,8.84972 4.38246,12.20742 7.98316,23.24702 10.98633,34.78144 1.57712,5.44751 2.9843,11.04637 4.61429,15.64135 10.4863,26.07531 21.97168,59.2443 27.90518,83.76357 0.2659,2.50738 1.7149,4.79409 2.6368,6.79164 3.5328,10.11453 5.0294,19.81248 7.9101,29.22464 3.2808,12.8781 9.1746,25.58827 12.085,36.83952 1.5457,13.10801 7.046,24.70657 10.5469,36.42789 3.1539,10.92933 5.3815,8.40004 12.0643,11.75792 13.9366,4.8435 40.2963,5.65814 40.7001,22.09106 -0.8924,14.0214 -16.016,10.56329 -29.4427,10.56329 -26.5989,-3.46759 -54.6185,0.88527 -81.40088,-2.09543 -3.80857,-0.41161 -7.83685,-0.61742 -12.0849,-0.61742 -13.08414,0.0864 -9.7091,10.84766 -21.79297,10.88131 -3.12919,0.3158 -13.32473,-2.90628 -20.41759,-7.87126 -3.4776,-2.4343 -6.20934,-7.37199 -6.99669,-8.46656 -5.0313,-21.33745 4.89645,-23.82751 23.00841,-25.13977 9.54542,-1.58573 22.97746,-0.93631 29.44336,-8.4381 l 0,-4.32195 c 0.39748,-3.08711 -0.61841,-6.12147 -1.31836,-8.84972 -0.51082,-2.05882 -1.07358,-3.96362 -1.53809,-5.96842 -4.98827,-11.19837 -7.29364,-23.94797 -11.6455,-34.98724 -0.29297,-1.23484 -0.5127,-1.98947 -0.65918,-2.26388 -1.83758,-6.31587 -2.55153,-12.32152 -5.27344,-17.90524 -2.48092,-5.2997 -7.17733,-3.91034 -12.74414,-3.91034 -10.11038,1.93895 -20.46984,-0.53781 -29.88282,1.44066 -8.36956,1.06971 -34.77955,-1.30829 -40.86914,1.64646 -5.48273,8.63265 -7.03826,19.25063 -9.44824,26.96075 -2.63672,8.91833 -5.2002,17.76804 -7.69043,26.54915 -0.58594,2.19528 -1.46485,4.52776 -2.63672,6.99744 -1.02539,2.4697 -1.53809,4.87078 -1.53809,7.20326 0,1.78366 0.43945,3.56734 1.31836,5.35099 3.98547,7.65182 11.36545,4.48974 17.79785,6.58584 1.73596,0.56492 3.64759,1.09146 5.27344,1.64645 2.54919,0.35934 5.25013,0.87459 7.4707,1.02905 3.69915,0.30708 17.97024,7.59941 20.52118,9.93796 10.26348,19.80843 -22.18288,24.71496 -30.79694,24.77447 -2.6156,-0.2227 -21.46997,-0.36888 -23.82571,-0.68604 -30.62682,2.3261 -32.47516,3.07766 -64.53989,6.4321 -18.41474,-3.03172 -29.97399,-33.57923 -14.90783,-38.03695 z" /><path
           d="m 942.39649,580.28678 12.52442,0 c 3.25917,-0.0458 6.98864,0.23214 9.88769,-0.82323 1.46485,-0.68602 2.19727,-2.26387 2.19727,-4.73357 -0.31877,-5.97761 -3.7218,-10.64285 -5.49316,-15.84717 -1.61133,-5.21378 -3.14942,-10.49616 -4.61426,-15.84715 -1.31836,-5.35099 -3.00293,-10.42758 -5.05371,-15.22974 -5.22821,-15.92644 -11.67908,-29.53971 -16.25977,-44.45438 -11.71553,-13.71086 -30.33968,67.96802 -34.49707,83.76358 -7.25675,17.39948 31.45889,12.91594 41.30859,13.17166 z M 787.75843,683.75972 c 3.51563,-0.96043 6.73828,-2.12666 9.66797,-3.49872 18.53625,-8.24897 30.93876,-0.47409 36.85594,-12.8746 1.02539,-1.78366 3.93973,-11.80891 4.08622,-14.55302 2.08877,-16.08042 9.85755,-28.88665 15.38086,-42.60211 2.22702,-6.10404 3.8239,-12.89246 5.93262,-18.31686 5.71924,-18.75163 12.1636,-35.57169 16.91894,-52.89247 1.47683,-7.39047 5.79624,-14.51305 8.12989,-20.99235 5.87195,-12.84362 3.34197,-15.88177 9.66797,-26.34333 9.62108,-24.9704 26.007,-54.3013 33.83789,-78.20679 0.85065,-2.01814 1.54894,-4.15385 2.19727,-6.17422 4.25911,-13.09055 6.34882,-11.92079 21.41074,-12.24505 0.22942,0.24091 0.33879,0.10577 0.65918,0.2058 8.48819,1.39664 18.15508,3.18399 23.6334,7.83114 1.28336,1.05184 2.29722,2.05428 3.2959,3.29292 0.9621,0.93768 1.26384,2.1858 1.53809,3.49873 0.43662,3.14752 1.34004,6.28334 1.97754,9.26132 0.63643,3.16042 1.52591,5.70534 1.97753,8.84972 4.38246,12.20742 7.98316,23.24702 10.98633,34.78144 1.57712,5.44751 2.9843,11.04637 4.61429,15.64135 10.4863,26.07531 21.9717,59.2443 27.9052,83.76357 0.2659,2.50738 1.7149,4.79409 2.6368,6.79164 3.5328,10.11453 5.0294,19.81248 7.9101,29.22464 3.2808,12.8781 9.1746,25.58827 12.085,36.83952 1.5457,13.10801 7.046,24.70657 10.5469,36.42789 3.1539,10.92933 5.3815,8.40004 12.0643,11.75792 13.9366,4.8435 24.2963,-0.34186 24.7001,16.09106 -0.8924,14.0214 -0.016,16.56329 -13.4427,16.56329 -26.5989,-3.46759 -54.6185,0.88527 -81.4009,-2.09543 -3.80857,-0.41161 -7.83685,-0.61742 -12.0849,-0.61742 -13.08414,0.0864 -25.7091,2.84766 -37.79297,2.88131 -4.66341,0.47064 -9.02105,-5.01079 -11.41428,-8.33782 -5.0313,-21.33745 4.89645,-23.82751 23.00841,-25.13977 9.54542,-1.58573 22.97746,-0.93631 29.44336,-8.4381 l 0,-4.32195 c 0.39748,-3.08711 -0.61841,-6.12147 -1.31836,-8.84972 -0.51082,-2.05882 -1.07358,-3.96362 -1.53809,-5.96842 -4.98827,-11.19837 -7.29364,-23.94797 -11.6455,-34.98724 -0.29297,-1.23484 -0.5127,-1.98947 -0.65918,-2.26388 -1.83758,-6.31587 -2.55153,-12.32152 -5.27344,-17.90524 -2.48092,-5.2997 -7.17733,-3.91034 -12.74414,-3.91034 -10.11038,1.93895 -20.46984,-0.53781 -29.88282,1.44066 -8.36956,1.06971 -34.77955,-1.30829 -40.86914,1.64646 -5.48273,8.63265 -7.03826,19.25063 -9.44824,26.96075 -2.63672,8.91833 -5.2002,17.76804 -7.69043,26.54915 -0.58594,2.19528 -1.46485,4.52776 -2.63672,6.99744 -1.02539,2.4697 -1.53809,4.87078 -1.53809,7.20326 0,1.78366 0.43945,3.56734 1.31836,5.35099 3.98547,7.65182 11.36545,4.48974 17.79785,6.58584 1.73596,0.56492 3.64759,1.09146 5.27344,1.64645 2.54919,0.35934 5.25013,0.87459 7.4707,1.02905 3.69915,0.30708 7.97024,5.59941 10.52118,7.93796 10.26348,19.80843 -12.18288,26.71496 -20.79694,26.77447 -2.6156,-0.2227 -21.46997,-0.36888 -23.82571,-0.68604 -30.62682,2.3261 -44.47516,-2.92234 -76.53989,0.4321 -18.41474,-3.03172 -17.97399,-27.57923 -2.90783,-32.03695 z"
           style="font-style:normal;font-variant:normal;font-weight:normal;font-stretch:normal;font-size:450.00003052px;line-height:125%;font-family:'IM FELL Double Pica';-inkscape-font-specification:'IM FELL Double Pica, Normal';text-align:start;writing-mode:lr-tb;text-anchor:start;fill:#ffffff;fill-opacity:1"
           id="path4156"
           inkscape:connector-curvature="0"
           sodipodi:nodetypes="ccccccccccccccccccccccccccccccccccccccccccccccccccccccccsccccccccc" /><path
           sodipodi:nodetypes="ccccccccccccccccsccccccccccccccccccccccsccccccccc"
           inkscape:connector-curvature="0"
           id="path4162"
           style="font-style:normal;font-variant:normal;font-weight:normal;font-stretch:normal;font-size:450.00003052px;line-height:125%;font-family:'IM FELL Double Pica';-inkscape-font-specification:'IM FELL Double Pica, Normal';text-align:start;writing-mode:lr-tb;text-anchor:start;fill:#13497d;fill-opacity:1"
           d="m 1187.9489,694.12193 c -3.8086,-1.40276 -7.6172,-3.29648 -11.4258,-5.68115 -5.4771,-4.28031 -12.9592,-7.73411 -18.0175,-11.15189 -9.8044,-7.95806 -18.553,-17.27029 -26.3672,-25.67038 -16.0104,-21.79845 -27.7791,-56.15199 -31.8604,-79.74649 0.4206,-19.93076 -2.601,-51.75676 4.3945,-68.80503 10.9242,-24.61364 18.4515,-43.11889 38.6719,-64.17594 7.0313,-7.29432 14.2823,-13.9574 21.753,-19.98924 9.6638,-8.28351 20.4619,-10.69196 29.663,-15.57055 10.0174,-5.59077 22.5444,-5.93119 32.2999,-9.04775 17.8946,-4.14315 35.9012,-3.46738 53.1738,-2.10413 1.7578,0.14028 3.0762,0.28055 3.9551,0.42082 6.0081,1.36647 12.3365,2.96803 17.5781,4.41867 14.7395,3.81273 33.7427,9.0221 42.8467,18.51634 7.0804,7.56406 19.3962,3.62963 22.0222,-2.69955 1.9302,-3.95843 4.0194,-11.25573 8.7891,-11.3623 0.6426,0 6.5714,-0.31197 13.0989,1.71334 8.3522,2.59145 11.9223,3.07018 12.4156,3.93631 2.8663,4.5347 1.3936,2.45437 1.5157,7.14972 -3.1606,22.55789 -19.6037,46.23556 -19.5381,66.70091 0,2.8055 7.414,15.40059 6.2422,17.78527 -3.1007,1.91718 -20.8217,-6.33777 -24.3308,-8.96181 -4.1504,-4.55931 -7.2356,-5.85597 -10.9863,-10.50678 -4.1561,-6.02177 -9.2444,-12.75381 -11.2061,-19.14757 -0.7324,-3.3666 -2.1972,-6.45266 -4.3945,-9.25817 -4.4402,-5.76189 -10.1705,-10.44959 -15.1611,-14.72891 -5.4369,-4.22089 -10.1716,-9.28036 -15.3809,-13.04559 -18.3774,-9.52847 -52.0382,-16.76052 -69.4336,-8.20611 -20.2337,8.89673 -35.8828,25.82248 -49.8779,35.98061 -16.0936,17.01179 -17.2278,36.57477 -23.5108,54.91777 -1.9896,5.6095 -2.7918,11.10599 -3.0761,16.41221 -4.8171,20.08752 -3.6712,40.97828 0.8789,59.75727 2.851,10.90212 7.0313,21.67969 9.4482,31.77236 1.635,9.71505 10.194,16.74351 13.8428,24.61831 7.8386,11.61667 21.2175,18.51445 30.1025,26.93286 21.5978,7.72777 58.6397,20.97326 79.2069,13.31421 13.4469,-6.58879 33.3992,-9.40503 40.4899,-17.97451 5.691,-8.29334 12.3989,-16.85518 18.6166,-24.10808 3.4915,-6.69246 13.196,-25.01128 17.5781,-26.15372 5.1597,0.23447 17.9455,-1.09033 20.5855,1.4879 11.302,11.03732 -11.2818,35.73651 -12.3304,49.43635 l 0,9.25817 c 0.5071,12.80353 -12.0605,5.17056 -21.9835,-1.26894 -2.7907,-5.48966 -5.0131,-1.59676 -11.8652,-0.41437 -4.6907,5.7695 -13.67,10.95883 -19.5557,14.51849 -6.2988,3.64716 -13.0371,6.66308 -20.2148,9.04777 -6.4797,2.85587 -12.4666,6.88483 -18.8965,8.20609 -24.8397,7.41013 -44.364,4.70713 -66.7969,1.4729 -13.2898,-0.51582 -21.8822,-4.03151 -32.959,-7.99569 z" /><path
           d="m 1207.9489,702.12193 c -3.8086,-1.40276 -7.6172,-3.29648 -11.4258,-5.68115 -5.4771,-4.28031 -12.9592,-7.73411 -18.0175,-11.15189 -9.8044,-7.95806 -18.553,-17.27029 -26.3672,-25.67038 -16.0104,-21.79845 -27.7791,-56.15199 -31.8604,-79.74649 0.4206,-19.93076 -2.601,-51.75676 4.3945,-68.80503 10.9242,-24.61364 18.4515,-43.11889 38.6719,-64.17594 7.0313,-7.29432 14.2823,-13.9574 21.753,-19.98924 9.6638,-8.28351 20.4619,-10.69196 29.663,-15.57055 10.0174,-5.59077 22.5444,-5.93119 32.2999,-9.04775 17.8946,-4.14315 35.9012,-3.46738 53.1738,-2.10413 1.7578,0.14028 3.0762,0.28055 3.9551,0.42082 6.0081,1.36647 12.3365,2.96803 17.5781,4.41867 14.7395,3.81273 33.7427,9.0221 42.8467,18.51634 7.0804,7.56406 13.6337,-1.03527 16.2597,-7.36445 1.9302,-3.95843 4.0194,-11.25573 8.7891,-11.3623 1.4649,0 10.3981,0.77152 11.277,2.31455 2.8663,4.5347 3.3936,10.45437 3.5157,15.14972 -3.1606,22.55789 -1.6037,46.23556 -1.5381,66.70091 0,2.8055 -0.586,5.40059 -1.7578,7.78527 -3.1007,1.91718 -12.8217,3.66223 -16.3308,1.03819 -4.1504,-4.55931 -7.2356,-5.85597 -10.9863,-10.50678 -4.1561,-6.02177 -9.2444,-12.75381 -11.2061,-19.14757 -0.7324,-3.3666 -2.1972,-6.45266 -4.3945,-9.25817 -4.4402,-5.76189 -10.1705,-10.44959 -15.1611,-14.72891 -5.4369,-4.22089 -10.1716,-9.28036 -15.3809,-13.04559 -18.3774,-9.52847 -52.0382,-16.76052 -69.4336,-8.20611 -42.8096,20.30058 -73.0246,60.98061 -76.4648,107.31059 -4.8171,20.08752 -3.6712,40.97828 0.8789,59.75727 2.851,10.90212 7.0313,21.67969 9.4482,31.77236 1.635,9.71505 10.194,16.74351 13.8428,24.61831 22.4865,29.45001 72.6102,46.01185 104.3701,35.30776 13.4469,-6.58879 33.3992,-9.40503 40.4899,-17.97451 5.691,-8.29334 12.3989,-16.85518 18.6166,-24.10808 3.4915,-6.69246 13.196,-27.01128 17.5781,-28.15372 27.2481,1.23824 14.488,40.96354 13.1944,57.86356 l 0,9.25817 c 0.5071,12.80353 -12.0605,17.17056 -21.9835,10.73106 -2.7907,-5.48966 -5.0131,-13.59676 -11.8652,-12.41437 -4.6907,5.7695 -13.67,10.95883 -19.5557,14.51849 -6.2988,3.64716 -13.0371,6.66308 -20.2148,9.04777 -6.4797,2.85587 -12.4666,6.88483 -18.8965,8.20609 -24.8397,7.41013 -44.364,4.70713 -66.7969,1.4729 -13.2898,-0.51582 -21.8822,-4.03151 -32.959,-7.99569 z"
           style="font-style:normal;font-variant:normal;font-weight:normal;font-stretch:normal;font-size:450.00003052px;line-height:125%;font-family:'IM FELL Double Pica';-inkscape-font-specification:'IM FELL Double Pica, Normal';text-align:start;writing-mode:lr-tb;text-anchor:start;fill:#ffffff;fill-opacity:1"
           id="path4158"
           inkscape:connector-curvature="0"
           sodipodi:nodetypes="cccccccccccccccccccccccccccccccccccccccccccc" /></g></g></g></svg>