<?xml version="1.0" encoding="UTF-8" standalone="no"?>
<!-- Created with Inkscape (http://www.inkscape.org/) -->

<svg
   xmlns:dc="http://purl.org/dc/elements/1.1/"
   xmlns:cc="http://creativecommons.org/ns#"
   xmlns:rdf="http://www.w3.org/1999/02/22-rdf-syntax-ns#"
   xmlns:svg="http://www.w3.org/2000/svg"
   xmlns="http://www.w3.org/2000/svg"
   xmlns:sodipodi="http://sodipodi.sourceforge.net/DTD/sodipodi-0.dtd"
   xmlns:inkscape="http://www.inkscape.org/namespaces/inkscape"
   width="100"
   height="100"
   viewBox="0 0 100 100"
   id="svg6434"
   version="1.1"
   inkscape:version="0.91 r13725"
   sodipodi:docname="service-2-mitigation.svg">
  <defs
     id="defs6436" />
  <sodipodi:namedview
     id="base"
     pagecolor="#ffffff"
     bordercolor="#666666"
     borderopacity="1.0"
     inkscape:pageopacity="0.0"
     inkscape:pageshadow="2"
     inkscape:zoom="3.959798"
     inkscape:cx="5.0316302"
     inkscape:cy="45.946197"
     inkscape:document-units="px"
     inkscape:current-layer="g7071"
     showgrid="false"
     units="px"
     inkscape:window-width="1280"
     inkscape:window-height="751"
     inkscape:window-x="0"
     inkscape:window-y="0"
     inkscape:window-maximized="1" />
  <metadata
     id="metadata6439">
    <rdf:RDF>
      <cc:Work
         rdf:about="">
        <dc:format>image/svg+xml</dc:format>
        <dc:type
           rdf:resource="http://purl.org/dc/dcmitype/StillImage" />
        <dc:title></dc:title>
      </cc:Work>
    </rdf:RDF>
  </metadata>
  <g
     inkscape:label="Layer 1"
     inkscape:groupmode="layer"
     id="layer1"
     transform="translate(0,-952.36214)">
    <g
       id="g7071"
       transform="matrix(0.769229,0,0,0.769229,11.550109,231.27818)">
      <g
         transform="translate(-2,0)"
         id="g6996">
        <path
           style="opacity:1;fill:#fde428;fill-opacity:1;stroke:none;stroke-width:3.00000024;stroke-miterlimit:4;stroke-dasharray:none;stroke-opacity:1"
           d="m 50.001953,963.46855 c -26.220442,3.4e-4 -47.4762255,21.25612 -47.4765624,47.47655 0.018828,6.9103 1.5459126,13.7332 4.4746094,19.9922 -0.035033,-0.6636 -0.058475,-1.3278 -0.070312,-1.9922 7.5e-4,-31.51982 25.552435,-57.0715 57.072265,-57.07226 3.044535,-1.96303 -8.905684,-8.39035 -14,-8.40429 z"
           id="path6982"
           inkscape:connector-curvature="0"
           sodipodi:nodetypes="cccccc" />
        <path
           style="opacity:1;fill:#fde428;fill-opacity:1;stroke:none;stroke-width:3;stroke-miterlimit:4;stroke-dasharray:none;stroke-opacity:1"
           d="m 49.438402,952.95324 18.136385,18.82625 -22.683217,12.9934 2.042064,-15.43266 z"
           id="rect6987"
           inkscape:connector-curvature="0"
           sodipodi:nodetypes="ccccc" />
      </g>
      <g
         transform="matrix(-1,0,0,-1,102.10018,2004.3956)"
         id="g7000">
        <path
           sodipodi:nodetypes="cccccc"
           inkscape:connector-curvature="0"
           id="path7002"
           d="m 50.001953,963.46855 c -26.220442,3.4e-4 -47.4762255,21.25612 -47.4765624,47.47655 0.018828,6.9103 1.5459126,13.7332 4.4746094,19.9922 -0.035033,-0.6636 -0.058475,-1.3278 -0.070312,-1.9922 7.5e-4,-31.51982 25.552435,-57.0715 57.072265,-57.07226 3.044535,-1.96303 -8.905684,-8.39035 -14,-8.40429 z"
           style="opacity:1;fill:#2270b9;fill-opacity:1;stroke:none;stroke-width:3.00000024;stroke-miterlimit:4;stroke-dasharray:none;stroke-opacity:1" />
        <path
           sodipodi:nodetypes="ccccc"
           inkscape:connector-curvature="0"
           id="path7004"
           d="m 49.438402,952.95324 18.136385,18.82625 -22.683217,12.9934 2.042064,-15.43266 z"
           style="opacity:1;fill:#2270b9;fill-opacity:1;stroke:none;stroke-width:3;stroke-miterlimit:4;stroke-dasharray:none;stroke-opacity:1" />
      </g>
    </g>
  </g>
</svg>
